<svg width="54" height="55" viewBox="0 0 54 55" fill="none" xmlns="http://www.w3.org/2000/svg">
<path d="M27 36.0938C31.6599 36.0938 35.4375 32.2462 35.4375 27.5C35.4375 22.7538 31.6599 18.9062 27 18.9062C22.3401 18.9062 18.5625 22.7538 18.5625 27.5C18.5625 32.2462 22.3401 36.0938 27 36.0938Z" stroke="black" stroke-width="2" stroke-miterlimit="10"/>
<path d="M36.2812 7.73438H17.7188C12.1269 7.73438 7.59375 12.3514 7.59375 18.0469V36.9531C7.59375 42.6486 12.1269 47.2656 17.7188 47.2656H36.2812C41.8731 47.2656 46.4062 42.6486 46.4062 36.9531V18.0469C46.4062 12.3514 41.8731 7.73438 36.2812 7.73438Z" stroke="black" stroke-width="2" stroke-linecap="round" stroke-linejoin="round"/>
<path d="M37.9688 18.9062C39.3667 18.9062 40.5 17.752 40.5 16.3281C40.5 14.9043 39.3667 13.75 37.9688 13.75C36.5708 13.75 35.4375 14.9043 35.4375 16.3281C35.4375 17.752 36.5708 18.9062 37.9688 18.9062Z" fill="black"/>
</svg>
