<svg width="52" height="53" viewBox="0 0 52 53" fill="none" xmlns="http://www.w3.org/2000/svg">
<path d="M32.5 26.5L22.75 19.875V33.125L32.5 26.5Z" stroke="black" stroke-width="2" stroke-linecap="round" stroke-linejoin="round"/>
<path d="M4.875 26.4999C4.875 32.6602 5.49943 36.2747 5.97413 38.1323C6.10101 38.6397 6.34469 39.1089 6.68496 39.5011C7.02523 39.8934 7.4523 40.1973 7.93079 40.3878C14.7308 43.0512 26 42.9781 26 42.9781C26 42.9781 37.2691 43.0512 44.0691 40.3878C44.5476 40.1974 44.9747 39.8934 45.315 39.5012C45.6553 39.1089 45.8989 38.6397 46.0258 38.1324C46.5005 36.2747 47.125 32.6603 47.125 26.4999C47.125 20.3396 46.5006 16.7252 46.0259 14.8675C45.899 14.3602 45.6553 13.891 45.315 13.4987C44.9748 13.1065 44.5477 12.8026 44.0692 12.6121C37.2692 9.94867 26 10.0218 26 10.0218C26 10.0218 14.7309 9.94867 7.93085 12.612C7.45236 12.8025 7.02529 13.1065 6.68501 13.4987C6.34474 13.8909 6.10106 14.3602 5.97417 14.8675C5.49946 16.7252 4.875 20.3396 4.875 26.4999Z" stroke="black" stroke-width="2" stroke-linecap="round" stroke-linejoin="round"/>
</svg>
